<svg width="278" height="369" viewBox="0 0 278 369" fill="none" xmlns="http://www.w3.org/2000/svg">
<path d="M225.805 87.5776L209.164 170.659L192.02 164.608L177.788 229.691L146.289 196.917L133.833 206.331L103.948 171.294L92.6269 157.96L83.2443 162.299L59.6836 132.237L225.805 87.5776Z" fill="url(#paint0_linear_8299_192984)"/>
<path d="M217.433 30.6843C211.464 32.4741 210.012 33.9307 208.228 39.9199C206.445 33.9307 204.993 32.4741 199.023 30.6843C204.993 28.8945 206.445 27.4379 208.228 21.4487C210.012 27.4379 211.464 28.8945 217.433 30.6843Z" fill="url(#paint1_linear_8299_192984)"/>
<path d="M63.7381 28.5613C57.7687 30.351 56.3169 31.8077 54.5331 37.7968C52.7492 31.8077 51.2975 30.351 45.3281 28.5613C51.2975 26.7715 52.7492 25.3149 54.5331 19.3257C56.3169 25.3149 57.7687 26.7715 63.7381 28.5613Z" fill="url(#paint2_linear_8299_192984)"/>
<path d="M85.9549 186.744C79.9855 188.534 78.5337 189.99 76.7499 195.979C74.966 189.99 73.5143 188.534 67.5449 186.744C73.5143 184.954 74.966 183.497 76.7499 177.508C78.5337 183.497 79.9855 184.954 85.9549 186.744Z" fill="url(#paint3_linear_8299_192984)"/>
<path d="M272.788 56.8881C276.927 72.3918 220.044 101.152 145.741 121.127C71.4367 141.101 7.84364 144.727 3.70449 129.231C-0.434655 113.727 56.4477 84.9668 130.752 64.9925C205.055 45.0182 268.648 41.3922 272.788 56.8881ZM131.902 69.2926C67.5678 86.5861 17.844 109.698 20.8403 120.917C23.8365 132.136 78.4176 127.209 142.744 109.907C207.079 92.614 256.802 69.5018 253.806 58.2828C250.81 47.0637 196.229 51.9914 131.902 69.2926Z" fill="url(#paint4_linear_8299_192984)"/>
<path d="M65.4746 129.634L79.2589 61.6142L96.5723 66.8441L112.272 7.26221L141.686 35.2943L154.605 26.1982L182.429 56.2681L195.495 70.4469L204.978 66.2397L221.473 88.7786L142.96 118.159L65.4746 129.634Z" fill="white"/>
<path d="M114.172 13.9875L137.13 35.8678L141.346 39.889L146.103 36.5419L154.111 30.9091L179.819 58.6933L191.163 71.0048L194.607 74.7471L199.248 72.6861L203.804 70.6639L215.82 87.0974L142.064 114.696L69.9614 125.372L81.9541 66.1623L92.024 69.1995L99.0667 71.3225L100.943 64.1944L114.164 13.9953M110.357 0.537045L94.0627 62.3736L76.5331 57.0817L60.9727 133.911L143.841 121.638L227.102 90.4832L206.144 61.8312L196.368 66.1701L185.023 53.8586L155.092 21.5108L142.01 30.7154L110.364 0.529297L110.357 0.537045Z" fill="url(#paint5_linear_8299_192984)"/>
<path d="M241.851 85.6875L238.716 73.957C219.596 85.1993 184.22 98.766 142.743 109.915C105.005 120.065 70.6404 125.946 48.0527 126.814L51.1185 138.304C76.5094 136.592 109.862 130.773 145.732 121.127C184.637 110.667 218.746 97.7975 241.844 85.6875H241.851Z" fill="url(#paint6_linear_8299_192984)"/>
<path d="M116.04 42.3916L99.0664 113.797L110.982 110.411L116.04 42.3916Z" fill="url(#paint7_linear_8299_192984)"/>
<path d="M110.001 110.675L140.744 102.408L106.604 97.9448L110.001 110.675Z" fill="url(#paint8_linear_8299_192984)"/>
<path d="M81.668 118.291L89.5679 78.2417L90.1084 116.021L81.668 118.291Z" fill="url(#paint9_linear_8299_192984)"/>
<path d="M179.217 78.4197L192.639 81.6351L202.353 93.8847L218.825 86.7101L206.369 67.6113L192.368 67.991L154.761 27.043L139.872 34.4268L113.223 12.6782L139.61 48.3421L141.471 67.3711L129.98 86.3382L161.178 63.6831L179.217 78.4197Z" fill="url(#paint10_linear_8299_192984)"/>
<path d="M0.148636 351.047C0.0495454 347.158 0 343.65 0 340.54C0 331.493 0.239469 321.543 0.726666 310.696C1.21386 299.85 2.08091 285.52 3.34431 267.717C8.09241 266.838 14.6076 265.992 22.89 265.163C31.1723 264.333 38.1747 263.877 43.889 263.778C43.9881 267.086 43.889 271.1 43.5999 275.818C43.3109 280.537 42.9724 284.749 42.5843 288.439C40.4538 288.34 38.1004 288.414 35.5323 288.655C32.9642 288.895 29.9337 289.31 26.449 289.899C26.2508 291.458 26.1104 293.547 26.0113 296.176C25.9122 297.636 25.8379 298.971 25.7966 300.19C25.7471 301.409 25.6728 302.793 25.5819 304.352L42.5843 302.313C42.6834 309.51 42.1466 316.857 40.9823 324.354L23.8313 328.881C23.7322 331.311 23.6579 333.359 23.6166 335.009C23.5671 336.668 23.5423 338.418 23.5423 340.267C23.5423 346.395 23.7818 353.601 24.269 361.868C21.1641 362.747 17.2913 363.494 12.6423 364.132C7.99332 364.762 3.97189 365.078 0.57803 365.078C0.379848 359.629 0.239469 354.961 0.140379 351.063L0.148636 351.047ZM16.1353 356.304C17.0106 356.205 17.9767 356.064 19.0419 355.865C18.2657 346.138 17.8776 338.641 17.8776 333.392C17.8776 329.984 18.0263 326.725 18.3153 323.616L36.3333 319.677C36.6223 316.078 36.7709 313.399 36.7709 311.65V309.9L18.6043 311.21C18.7942 300.215 19.1328 291.557 19.62 285.23C23.0138 284.741 26.3251 284.31 29.5786 283.92C32.8238 283.53 35.5158 283.29 37.6462 283.19C37.7453 282.021 37.7949 280.976 37.7949 280.056C37.7949 279.135 37.8444 277.891 37.9435 276.332V271.515C33.7734 271.515 28.5712 271.689 22.3202 272.029C16.0692 272.369 10.9082 272.783 6.84552 273.273C6.26749 287.088 5.97022 301.442 5.97022 316.327C5.97022 323.823 6.06931 330.971 6.25923 337.779C6.44916 344.587 6.74643 351.155 7.13454 357.482C9.26499 357.291 12.2707 356.901 16.1435 356.313L16.1353 356.304Z" fill="#0299F2"/>
<path d="M77.4649 363.817C77.1759 362.507 76.8374 360.824 76.4492 358.784C75.9621 356.445 75.5987 354.696 75.3592 353.526C75.1198 352.357 74.7564 350.657 74.2693 348.418C73.204 342.779 72.1388 338.401 71.0736 335.283C70.9745 337.132 70.8754 338.642 70.7846 339.811C70.6855 340.98 70.5864 342.489 70.4955 344.338C70.3965 346.677 70.3221 349.181 70.2808 351.851C70.2313 354.53 70.2065 357.474 70.2065 360.683C67.5889 362.333 64.6574 363.452 61.4122 364.041C58.167 364.622 54.2199 365.011 49.5709 365.21L46.2266 365.36C46.2266 353.684 46.2761 342.498 46.3752 331.792C46.8624 296.765 47.1019 275.843 47.1019 269.035C51.2637 266.796 56.5981 264.897 63.0885 263.347C69.579 261.788 76.0198 261.008 82.4195 261.008C89.587 261.008 94.0461 261.979 95.7885 263.927C97.4317 265.677 98.9346 270.13 100.297 277.278C101.651 284.426 102.328 291.707 102.328 299.095C102.328 302.694 102.089 305.862 101.602 308.582C101.024 311.31 100.388 313.275 99.7108 314.494C99.0337 315.713 97.7703 317.438 95.9288 319.677L95.3508 320.407C97.3822 328.873 99.7108 340.939 102.328 356.603C99.1328 359.431 95.5903 361.835 91.7175 363.826C87.8447 365.816 83.4351 367.549 78.4889 369.008C78.1008 366.869 77.7622 365.144 77.4732 363.826L77.4649 363.817ZM91.9239 357.83C94.0048 356.81 95.8215 355.666 97.3739 354.397C94.1782 338.542 91.3211 326.958 88.8026 319.66C89.4797 318.881 90.1568 318.151 90.8339 317.471C92.2873 315.912 93.3277 314.602 93.9553 313.532C94.5829 312.463 95.0948 310.812 95.4829 308.573C95.6729 306.625 95.7719 304.825 95.7719 303.175C95.7719 297.437 95.1196 290.77 93.8066 283.182C92.5019 275.595 91.2138 271.216 89.9586 270.047C89.4714 269.566 88.1667 269.168 86.0363 268.878C83.9058 268.588 81.2882 268.438 78.1916 268.438C72.7664 268.438 67.7045 268.853 63.0059 269.682C58.3074 270.511 54.3107 271.606 51.0159 272.966C51.2059 279.774 51.4536 287.826 51.7426 297.122C52.0316 306.417 52.3206 316.07 52.6179 326.095C52.9069 337.29 53.1959 347.697 53.4932 357.324H54.7979C59.4469 357.134 62.8903 356.694 65.1199 356.014V348.642C65.1199 346.453 65.1694 343.658 65.2685 340.25L65.4171 333.533C65.4171 332.273 65.7309 331.079 66.3585 329.959C66.9861 328.84 67.8862 327.944 69.0505 327.256C70.2148 326.866 71.0818 326.676 71.6681 326.676C72.7333 326.676 73.6995 326.949 74.5748 327.48C75.4501 328.019 76.0777 328.815 76.4658 329.885C77.82 332.514 79.5624 337.962 81.7011 346.229C82.1883 348.178 82.5929 349.787 82.9397 351.047C83.2783 352.316 83.6911 353.966 84.1783 356.006C84.3683 357.076 84.5169 357.855 84.616 358.344C84.7151 358.834 84.905 359.563 85.194 360.533C87.6135 359.754 89.8678 358.858 91.9487 357.83H91.9239ZM67.0687 313.026C66.053 312.297 65.4006 311.302 65.1033 310.033C64.8143 308.673 64.6657 306.724 64.6657 304.195C64.6657 302.545 64.7648 300.256 64.9547 297.337C65.1446 294.418 65.3428 291.889 65.5327 289.75C65.6318 287.9 66.5484 286.225 68.2908 284.716C70.0331 283.207 71.8746 282.452 73.8151 282.452C75.1693 282.452 76.3584 282.867 77.3741 283.696C78.3898 284.525 79.0917 285.72 79.4798 287.27C81.0322 292.619 81.8084 297.536 81.8084 302.014C81.8084 303.673 81.7589 304.834 81.6598 305.514C81.4616 307.363 80.7184 309.013 79.4055 310.472C78.1008 311.932 76.4245 313.002 74.3931 313.682C72.9398 313.972 71.825 314.121 71.0488 314.121C69.3973 314.121 68.0678 313.756 67.0521 313.026H67.0687ZM73.972 307.189C74.4592 306.849 74.8638 306.409 75.2106 305.878C75.5492 305.348 75.7226 304.883 75.7226 304.494C75.9125 302.545 76.0116 301.085 76.0116 300.115C76.0116 297.006 75.4749 293.158 74.4096 288.589C74.3105 288.299 74.2114 288.149 74.1206 288.149C73.8316 288.149 73.5591 288.299 73.3196 288.589C73.0802 288.879 72.9067 289.269 72.8077 289.758C72.7086 291.897 72.5186 294.037 72.2296 296.176C71.9406 298.316 71.7424 300.555 71.6516 302.893L71.503 303.913C71.503 306.442 71.9406 307.711 72.8077 307.711C73.0967 307.711 73.4848 307.545 73.972 307.197V307.189Z" fill="#0299F2"/>
<path d="M106.531 324.487C106.82 309.312 106.969 295.347 106.969 282.602V268.737C109.975 267.568 113.509 266.647 117.58 265.967C121.651 265.287 125.284 264.947 128.48 264.947C130.222 264.947 131.387 264.997 131.965 265.097C132.155 267.825 132.254 274.533 132.254 285.239C132.254 297.694 131.94 310.779 131.312 324.495C130.685 338.21 129.884 349.936 128.918 359.671C126.3 360.451 123.253 361.031 119.76 361.421C116.275 361.811 112.105 362.051 107.258 362.151H105.516C105.904 352.225 106.242 339.678 106.531 324.495V324.487ZM116.994 354.845C118.249 354.845 119.487 354.795 120.701 354.696C121.915 354.596 123.344 354.455 124.987 354.256C125.664 342.68 126.003 330.416 126.003 317.48C126.003 300.356 125.565 285.28 124.698 272.236C122.956 272.236 120.866 272.386 118.447 272.676C116.028 272.966 113.699 273.306 111.469 273.696C111.857 282.262 112.221 294.667 112.559 310.912C112.898 327.165 113.071 341.801 113.071 354.845H116.994Z" fill="#0299F2"/>
<path d="M106.531 324.487C106.82 309.312 106.969 295.347 106.969 282.602V268.737C109.975 267.568 113.509 266.647 117.58 265.967C121.651 265.287 125.284 264.947 128.48 264.947C130.222 264.947 131.387 264.997 131.965 265.097C132.155 267.825 132.254 274.533 132.254 285.239C132.254 297.694 131.94 310.779 131.312 324.495C130.685 338.21 129.884 349.936 128.918 359.671C126.3 360.451 123.253 361.031 119.76 361.421C116.275 361.811 112.105 362.051 107.258 362.151H105.516C105.904 352.225 106.242 339.678 106.531 324.495V324.487ZM116.994 354.845C118.249 354.845 119.487 354.795 120.701 354.696C121.915 354.596 123.344 354.455 124.987 354.256C125.664 342.68 126.003 330.416 126.003 317.48C126.003 300.356 125.565 285.28 124.698 272.236C122.956 272.236 120.866 272.386 118.447 272.676C116.028 272.966 113.699 273.306 111.469 273.696C111.857 282.262 112.221 294.667 112.559 310.912C112.898 327.165 113.071 341.801 113.071 354.845H116.994Z" fill="#0299F2"/>
<path d="M144.243 365.567C142.063 365.028 140.635 364.273 139.957 363.303C138.694 361.645 137.728 358.145 137.051 352.797C136.374 347.448 136.035 340.681 136.035 332.513C136.035 327.455 136.134 322.687 136.324 318.209C136.423 313.731 136.977 307.827 137.992 300.48C139.008 293.133 140.147 286.466 141.411 280.487C142.666 274.5 143.682 271.025 144.466 270.055C146.109 268.015 149.503 266.315 154.639 264.947C159.776 263.587 165.341 262.907 171.353 262.907C177.843 262.907 182.352 263.736 184.87 265.387C186.126 266.067 187.075 268.43 187.703 272.468C188.33 276.507 188.644 282.029 188.644 289.037V297.943C185.448 299.601 182.03 300.787 178.396 301.517C174.763 302.246 170.329 302.661 165.102 302.76L165.391 298.963C165.49 297.213 165.539 295.579 165.539 294.07C165.539 292.561 165.49 291.367 165.391 290.496C165.391 289.916 165.242 289.617 164.953 289.617C164.854 289.617 164.738 289.741 164.59 289.982C164.441 290.222 164.326 290.546 164.226 290.927C163.26 295.214 162.459 300.289 161.832 306.177C161.204 312.064 160.791 317.877 160.593 323.616C160.882 322.256 161.171 320.871 161.468 319.453C161.757 318.043 162.096 316.658 162.484 315.29L163.648 310.763C166.357 309.884 169.99 309.088 174.548 308.358C179.098 307.628 184.235 307.023 189.957 306.533V311.492C189.957 319.47 189.718 328.011 189.23 337.107C188.743 346.204 188.165 353.676 187.488 359.513C183.417 361.462 178.017 363.088 171.287 364.406C164.549 365.716 158.331 366.38 152.608 366.38C149.214 366.38 146.431 366.114 144.251 365.575L144.243 365.567ZM171.13 357.905C175.927 357.225 179.924 356.296 183.12 355.135C183.607 348.128 183.846 339.181 183.846 328.284L183.698 313.98C177.009 314.37 171.584 315 167.422 315.879C166.844 318.698 166.382 321.062 166.043 322.961C165.705 324.86 165.531 326.394 165.531 327.555L172.798 327.845V341.859C172.699 343.517 171.708 344.994 169.817 346.312C167.926 347.622 165.721 348.286 163.203 348.286C161.551 348.286 160.147 347.871 158.991 347.042C157.827 346.213 157.001 345.118 156.522 343.758C155.457 338.799 154.92 331.742 154.92 322.596C154.92 316.857 155.184 310.87 155.721 304.643C156.25 298.415 156.96 292.917 157.827 288.149C158.017 286.789 158.843 285.545 160.296 284.426C161.749 283.306 163.252 282.751 164.805 282.751C166.745 282.751 168.24 283.721 169.313 285.67C170.568 288.008 171.204 291.748 171.204 296.906C175.275 296.715 178.859 296.077 181.955 295.007V288.879C181.955 286.35 181.856 284.011 181.666 281.872C181.666 280.993 181.617 280.222 181.518 279.533C181.419 277.104 181.303 275.354 181.154 274.276C181.006 273.206 180.742 272.576 180.354 272.377C178.322 271.017 174.202 270.337 168 270.337C163.252 270.337 158.818 270.727 154.706 271.506C150.585 272.286 148.091 273.206 147.224 274.276C146.258 275.445 145.168 281.043 143.954 291.06C142.74 301.085 142.137 309.792 142.137 317.181C142.137 329.147 142.451 338.492 143.079 345.201C143.706 351.918 144.656 356.097 145.911 357.756C146.2 358.046 147.365 358.319 149.396 358.56C151.427 358.8 153.706 358.925 156.225 358.925C161.361 358.925 166.324 358.585 171.122 357.905H171.13ZM164.664 342.945C165.242 342.605 165.539 342.24 165.539 341.851C165.729 339.421 165.828 336.792 165.828 333.973H160.742C160.932 338.161 161.179 341.121 161.468 342.879C161.568 343.269 161.997 343.459 162.773 343.459C163.45 343.459 164.078 343.294 164.664 342.945Z" fill="#0299F2"/>
<path d="M194.746 324.487C195.035 309.312 195.184 295.347 195.184 282.602V268.737C198.19 267.568 201.724 266.647 205.795 265.967C209.866 265.287 213.499 264.947 216.695 264.947C218.437 264.947 219.601 264.997 220.179 265.097C220.369 267.825 220.468 274.533 220.468 285.239C220.468 297.694 220.155 310.779 219.527 324.495C218.9 338.21 218.099 349.936 217.132 359.671C214.515 360.451 211.468 361.031 207.975 361.421C204.49 361.811 200.32 362.051 195.473 362.151H193.73C194.119 352.225 194.457 339.678 194.746 324.495V324.487ZM205.208 354.845C206.464 354.845 207.702 354.795 208.916 354.696C210.13 354.596 211.559 354.455 213.202 354.256C213.879 342.68 214.217 330.416 214.217 317.48C214.217 300.356 213.78 285.28 212.913 272.236C211.17 272.236 209.081 272.386 206.662 272.676C204.242 272.966 201.914 273.306 199.684 273.696C200.072 282.262 200.436 294.667 200.774 310.912C201.113 327.165 201.286 341.801 201.286 354.845H205.208Z" fill="#0299F2"/>
<path d="M224.242 363.602C224.919 351.636 225.357 340.085 225.547 328.94C225.737 317.803 225.885 301.915 225.985 281.292V268.306C228.214 266.747 231.583 265.486 236.084 264.508C240.592 263.538 245.505 263.048 250.832 263.048C255.869 263.048 260.204 263.488 263.837 264.359C267.471 265.238 269.865 266.398 271.03 267.858C272.871 270.288 274.324 275.155 275.39 282.453C276.455 289.75 276.992 298.266 276.992 307.993C276.992 322.198 275.877 334.139 273.647 343.824C271.418 353.51 268.321 359.754 264.349 362.582C263.284 363.361 261.005 363.967 257.52 364.406C254.035 364.846 249.964 365.061 245.315 365.061C238.338 365.061 231.311 364.572 224.242 363.602ZM262.755 357.034C265.373 355.185 267.454 350.566 269.006 343.169C270.559 335.773 271.335 326.726 271.335 316.02C271.335 305.315 270.774 296.492 269.667 288.655C268.552 280.827 267.074 275.736 265.233 273.406C264.457 272.435 261.963 271.606 257.751 270.926C253.54 270.246 249.007 269.906 244.159 269.906C241.154 269.906 238.445 270.08 236.017 270.42C233.598 270.76 231.608 271.225 230.056 271.805C231.22 305.373 231.798 330.183 231.798 346.238C231.798 349.646 231.748 353.095 231.649 356.603C235.043 357.092 238.767 357.507 242.838 357.847C246.909 358.187 250.443 358.361 253.449 358.361C258.387 358.361 261.492 357.922 262.747 357.051L262.755 357.034ZM245.101 343.899C244.085 343.02 243.474 341.809 243.284 340.25C242.797 333.633 242.557 325.946 242.557 317.189C242.557 306.583 242.896 296.956 243.573 288.29C243.763 286.64 244.424 285.297 245.538 284.277C246.653 283.257 247.983 282.743 249.535 282.743C250.889 282.743 252.202 283.182 253.457 284.053C254.713 284.932 255.538 286.002 255.926 287.262C256.802 290.571 257.528 295.264 258.106 301.343C258.684 307.421 258.982 313.773 258.982 320.39C258.982 327.886 258.643 333.625 257.966 337.613C257.578 339.653 256.538 341.436 254.845 342.937C253.152 344.446 251.236 345.201 249.106 345.201C247.454 345.201 246.125 344.761 245.109 343.891L245.101 343.899ZM250.402 338.351C250.79 337.862 251.03 337.381 251.129 336.892C252.384 331.543 253.02 323.417 253.02 312.521C253.02 303.863 252.582 297.047 251.715 292.088C251.616 291.798 251.5 291.533 251.352 291.284C251.203 291.043 251.038 290.919 250.84 290.919C250.741 290.919 250.625 291.019 250.476 291.209C250.328 291.408 250.204 291.649 250.113 291.939C248.85 301.964 248.222 313.682 248.222 327.115C248.222 331.303 248.272 334.852 248.371 337.771C248.371 338.65 248.66 339.081 249.246 339.081C249.634 339.081 250.022 338.841 250.41 338.351H250.402Z" fill="#0299F2"/>
<path d="M108.306 261.322C107.487 261.614 106.661 261.942 105.995 262.502C105.186 263.182 104.684 264.152 104.246 265.114C103.367 267.049 102.662 269.266 103.502 271.258C103.623 271.547 103.79 271.821 104.029 272.024C105.219 273.04 106.654 271.921 107.968 271.404C109.374 270.855 111.052 271.051 112.295 271.914C113.342 272.641 114.367 273.877 115.717 272.922C115.948 272.758 116.134 272.541 116.297 272.306C117.48 270.613 118.986 269.056 120.874 268.197C122.601 267.413 124.684 267.27 126.379 268.122C128.648 269.259 129.766 271.81 130.713 274.166L131.988 277.341C132.323 278.175 133.52 278.108 133.769 277.242C133.89 276.814 133.94 276.354 133.929 275.923C133.904 274.804 133.666 273.631 134.114 272.605C134.417 271.917 134.997 271.39 135.375 270.738C136.23 269.266 135.934 267.384 135.282 265.809C134.004 262.726 131.426 260.207 128.313 259.006C125.952 258.097 121.579 258.977 119.05 259.134C115.389 259.358 111.76 260.093 108.303 261.319L108.306 261.322Z" fill="#C0E8FF"/>
<mask id="mask0_8299_192984" style="mask-type:luminance" maskUnits="userSpaceOnUse" x="103" y="258" width="33" height="20">
<path d="M108.306 261.322C107.487 261.614 106.661 261.942 105.995 262.502C105.186 263.182 104.684 264.152 104.246 265.114C103.367 267.049 102.662 269.266 103.502 271.258C103.623 271.547 103.79 271.821 104.029 272.024C105.219 273.04 106.654 271.921 107.968 271.404C109.374 270.855 111.052 271.051 112.295 271.914C113.342 272.641 114.367 273.877 115.717 272.922C115.948 272.758 116.134 272.541 116.297 272.306C117.48 270.613 118.986 269.056 120.874 268.197C122.601 267.413 124.684 267.27 126.379 268.122C128.648 269.259 129.766 271.81 130.713 274.166L131.988 277.341C132.323 278.175 133.52 278.108 133.769 277.242C133.89 276.814 133.94 276.354 133.929 275.923C133.904 274.804 133.666 273.631 134.114 272.605C134.417 271.917 134.997 271.39 135.375 270.738C136.23 269.266 135.934 267.384 135.282 265.809C134.004 262.726 131.426 260.207 128.313 259.006C125.952 258.097 121.579 258.977 119.05 259.134C115.389 259.358 111.76 260.093 108.303 261.319L108.306 261.322Z" fill="white"/>
</mask>
<g mask="url(#mask0_8299_192984)">
<path d="M106.646 258.118C104.239 260.509 102.689 263.745 102.333 267.12C102.269 267.726 102.248 268.357 102.483 268.92C102.967 270.071 104.406 270.549 105.638 270.374C106.874 270.199 107.974 269.54 109.093 268.988C110.211 268.435 111.468 267.979 112.682 268.246C113.256 268.375 113.786 268.66 114.363 268.788C116.244 269.209 118.031 267.911 119.52 266.689C121.008 265.467 122.793 264.166 124.673 264.572C126.899 265.053 128.081 267.705 130.261 268.368C132.091 268.927 134.107 267.844 135.211 266.283C136.315 264.722 136.706 262.776 137.03 260.887C138.676 263.703 139.83 266.807 140.421 270.018C140.709 271.586 140.862 273.2 140.617 274.775C140.025 278.535 137.151 281.661 133.736 283.339C130.321 285.018 126.422 285.428 122.615 285.399C116.543 285.356 110.382 284.219 105.051 281.311C102.768 280.068 100.546 278.361 99.6624 275.912C99.0001 274.08 99.1817 272.028 99.7835 270.174C100.385 268.321 101.39 266.629 102.383 264.95" fill="#65BEFE"/>
</g>
<path d="M125 272.872C125.032 273.264 125.395 273.527 125.68 273.798C126.154 274.247 126.467 274.86 126.56 275.509C126.617 275.901 126.603 276.329 126.827 276.656C127.126 277.091 127.717 277.177 128.241 277.223C128.547 277.252 128.9 277.266 129.12 277.048C129.234 276.938 129.295 276.785 129.341 276.631C129.655 275.602 129.476 274.433 128.871 273.542C128.369 272.8 127.561 272.237 126.684 272.041C126.122 271.917 124.936 272.041 125.004 272.879L125 272.872Z" fill="#65BEFE"/>
<path d="M130.277 284.066C130.929 284.259 131.77 284.13 132.069 283.521C132.147 283.364 132.179 283.19 132.19 283.019C132.275 281.718 130.858 280.791 129.679 281.393C128.351 282.071 129.109 283.724 130.274 284.066H130.277Z" fill="#C0E8FF"/>
<path d="M111.331 280.144C111.246 280.518 111.096 280.889 110.829 281.163C110.562 281.437 110.152 281.594 109.782 281.487C109.426 281.387 109.166 281.06 109.066 280.707C108.963 280.35 108.995 279.973 109.066 279.609C109.166 279.11 109.355 278.604 109.743 278.28C110.117 277.97 110.875 277.849 111.217 278.28C111.58 278.736 111.445 279.638 111.331 280.147V280.144Z" fill="#C0E8FF"/>
<path d="M112.647 276.039C112.497 276.054 112.337 276.05 112.216 275.965C111.571 275.526 112.536 274.917 112.996 275.009C113.836 275.181 113.248 275.982 112.647 276.036V276.039Z" fill="#64BEFE"/>
<path d="M231.452 263.938C231.988 263.826 232.562 263.846 233.052 263.601C233.393 263.431 233.663 263.148 233.925 262.869C235.451 261.24 235.551 263.001 237.077 261.371C238.681 259.654 239.571 259.04 242.689 258.818C245.051 258.65 247.57 259.907 249.549 260.124C250.917 260.273 252.942 259.33 254.306 259.5C256.359 259.754 257.149 259.385 258.883 260.52C261.856 262.466 266.391 261.551 268.674 264.279C269.015 264.686 269.281 265.156 269.659 265.53C270.541 266.403 271.863 266.615 273.093 266.773C274.324 266.931 275.646 267.122 276.548 267.975C277.451 268.827 277.571 270.586 276.469 271.155C275.954 271.421 275.235 271.43 274.973 271.941C274.831 272.215 274.881 272.54 274.902 272.847C274.985 274.082 274.836 274.589 274 275.5C273.863 274.756 273.5 274.5 273 275C272.123 278.771 272.083 281.695 272.295 285.561C272.316 285.919 272.333 286.297 272.158 286.605C271.979 286.912 271.522 287.087 271.256 286.85C271.144 286.75 271.089 286.601 271.044 286.459C271 282 270.965 278.327 269.938 274.406C269.327 273.845 268.311 274.654 267.5 274.5C266.901 274.384 267.015 274.149 266.616 273.687C265.76 272.694 264.171 273.662 262.862 273.625C261.76 273.592 260.812 272.789 259.719 272.66C257.457 272.394 255.688 274.47 254 276C251 277.5 249 277.5 246 277C243.551 275.774 241.513 273.887 238.977 272.852C236.715 271.929 234.162 272.29 231.751 272.664C231.439 272.714 231.119 272.764 230.84 272.914C229.377 273.704 229.576 275.964 228 276.5C227.43 276.695 226.79 276.458 226.316 276.084C225.185 275.19 225.128 275.273 224.5 274C224.5 272.55 224.155 271.796 224.018 270.902C223.831 269.683 225.336 267.903 226.5 267.5C227.98 266.98 228.146 266.859 229.069 266.224C230.134 265.493 230.055 264.229 231.456 263.934L231.452 263.938Z" fill="#C0E8FF"/>
<path d="M238.553 269.962C239.932 270.367 240.5 271.494 244.5 272.747C248.5 274 257.5 270.5 260 270C262.5 269.5 264.411 270.13 267 271.5C267.862 271.957 268.11 272.098 269 272.5C269.733 272.832 269.882 273 271 273C271.5 273 272 273 272.5 272.5C273 272 273.276 271.447 273.5 271C274 270 275 270.5 276 270C276.8 269.6 276.983 269.167 277.15 269C277.15 269 277.234 269.173 277.3 269.5C277.5 270.5 277 271.5 276 271.5C275 271.5 275 272.063 275 272.5C275 274 275 275.5 274 276C273 276.5 273 277.6 273 278C273 278.5 273 286 272.5 287C272 288 271.316 287.632 271 287C270.5 286 270.5 278 270 276C269.758 275.034 269 274.5 267.5 275C266 275.5 265 274.5 263.5 274C262 273.5 260.5 273.5 259.5 273.5C258.5 273.5 257 274 255.5 275C254 276 251.686 277.259 249.5 277.5C247.313 277.741 245.5 277.5 244 276.5C242.5 275.5 241.303 274.534 239.5 273.5C238.185 272.747 235.5 272.5 234 273C232.499 273.5 231.251 274.249 230.5 275C229.748 275.751 229.217 276.141 228.5 276.5C227.5 277 226.275 277.275 225 276C223.999 275 223.617 271.427 223.999 270.5L226 272.5C227 273.5 228.063 273.247 229 273C229.944 272.751 230.316 272.468 230.999 272C232.019 271.303 233.5 269.5 235 269.5C236.5 269.5 237.024 269.513 238.553 269.962Z" fill="#64BEFE"/>
<path d="M227.296 281.023C227.516 281.666 228.106 282.278 228.776 282.17C228.949 282.144 229.11 282.069 229.256 281.979C230.367 281.298 230.305 279.605 229.133 278.991C227.813 278.297 226.901 279.871 227.294 281.02L227.296 281.023Z" fill="#C0E8FF"/>
<path d="M273.483 293.65C273.651 293.995 273.767 294.378 273.731 294.759C273.695 295.14 273.474 295.519 273.118 295.668C272.778 295.813 272.37 295.721 272.071 295.509C271.767 295.296 271.556 294.981 271.383 294.653C271.148 294.202 270.978 293.689 271.077 293.193C271.174 292.717 271.689 292.148 272.226 292.269C272.795 292.397 273.255 293.184 273.485 293.653L273.483 293.65Z" fill="#C0E8FF"/>
<path d="M271.934 289.628C271.827 289.733 271.7 289.83 271.552 289.84C270.775 289.902 271.145 288.822 271.561 288.607C272.323 288.213 272.368 289.206 271.932 289.625L271.934 289.628Z" fill="#64BEFE"/>
<defs>
<linearGradient id="paint0_linear_8299_192984" x1="177.707" y1="240.788" x2="109.647" y2="-12.3711" gradientUnits="userSpaceOnUse">
<stop stop-color="#005AE6"/>
<stop offset="1" stop-color="#03DBFF"/>
</linearGradient>
<linearGradient id="paint1_linear_8299_192984" x1="208.228" y1="341.595" x2="208.228" y2="-46.4545" gradientUnits="userSpaceOnUse">
<stop stop-color="#005AE6"/>
<stop offset="1" stop-color="#03DBFF"/>
</linearGradient>
<linearGradient id="paint2_linear_8299_192984" x1="54.5331" y1="320.993" x2="54.5331" y2="-67.0564" gradientUnits="userSpaceOnUse">
<stop stop-color="#005AE6"/>
<stop offset="1" stop-color="#03DBFF"/>
</linearGradient>
<linearGradient id="paint3_linear_8299_192984" x1="76.7499" y1="263.255" x2="76.7499" y2="-124.802" gradientUnits="userSpaceOnUse">
<stop stop-color="#005AE6"/>
<stop offset="1" stop-color="#03DBFF"/>
</linearGradient>
<linearGradient id="paint4_linear_8299_192984" x1="177.706" y1="240.788" x2="109.647" y2="-12.3709" gradientUnits="userSpaceOnUse">
<stop stop-color="#005AE6"/>
<stop offset="1" stop-color="#03DBFF"/>
</linearGradient>
<linearGradient id="paint5_linear_8299_192984" x1="178.355" y1="240.614" x2="110.296" y2="-12.5455" gradientUnits="userSpaceOnUse">
<stop stop-color="#005AE6"/>
<stop offset="1" stop-color="#03DBFF"/>
</linearGradient>
<linearGradient id="paint6_linear_8299_192984" x1="180.676" y1="239.998" x2="112.613" y2="-13.1764" gradientUnits="userSpaceOnUse">
<stop stop-color="#005AE6"/>
<stop offset="1" stop-color="#03DBFF"/>
</linearGradient>
<linearGradient id="paint7_linear_8299_192984" x1="152.8" y1="247.484" x2="84.7402" y2="-5.67528" gradientUnits="userSpaceOnUse">
<stop stop-color="#005AE6"/>
<stop offset="1" stop-color="#03DBFF"/>
</linearGradient>
<linearGradient id="paint8_linear_8299_192984" x1="162.333" y1="244.922" x2="94.2731" y2="-8.23776" gradientUnits="userSpaceOnUse">
<stop stop-color="#005AE6"/>
<stop offset="1" stop-color="#03DBFF"/>
</linearGradient>
<linearGradient id="paint9_linear_8299_192984" x1="127.304" y1="254.338" x2="59.2446" y2="1.17922" gradientUnits="userSpaceOnUse">
<stop stop-color="#005AE6"/>
<stop offset="1" stop-color="#03DBFF"/>
</linearGradient>
<linearGradient id="paint10_linear_8299_192984" x1="213.071" y1="231.281" x2="145.011" y2="-21.8782" gradientUnits="userSpaceOnUse">
<stop stop-color="#005AE6"/>
<stop offset="1" stop-color="#03DBFF"/>
</linearGradient>
</defs>
</svg>
